<svg width="35" height="35" viewBox="0 0 35 35" fill="none" xmlns="http://www.w3.org/2000/svg">
<rect width="35" height="35" rx="17.5" fill="#FFC145"/>
<mask id="mask0_1_300" style="mask-type:alpha" maskUnits="userSpaceOnUse" x="0" y="0" width="35" height="35">
<circle cx="17.5" cy="17.5" r="17.5" fill="#FFC145"/>
</mask>
<g mask="url(#mask0_1_300)">
<path d="M28.3146 37.0849V33.51C28.3146 31.6138 27.7449 29.7952 26.7308 28.4544C25.7168 27.1135 24.3414 26.3603 22.9072 26.3603H12.0925C10.6584 26.3603 9.28298 27.1135 8.2689 28.4544C7.25482 29.7952 6.68512 31.6138 6.68512 33.51V37.0849" fill="#197BBD"/>
<path d="M17.4985 20.9521C20.4849 20.9521 22.9059 18.5311 22.9059 15.5447C22.9059 12.5583 20.4849 10.1374 17.4985 10.1374C14.5121 10.1374 12.0911 12.5583 12.0911 15.5447C12.0911 18.5311 14.5121 20.9521 17.4985 20.9521Z" fill="white"/>
</g>
</svg>
