<svg width="321" height="207" viewBox="0 0 321 207" fill="none" xmlns="http://www.w3.org/2000/svg">
<rect x="0.440491" y="0.430969" width="320.425" height="206.172" rx="26" fill="url(#paint0_linear_1353_2)"/>
<mask id="mask0_1353_2" style="mask-type:alpha" maskUnits="userSpaceOnUse" x="0" y="0" width="321" height="207">
<rect x="0.440491" y="0.430969" width="320.425" height="206.172" rx="26" fill="url(#paint1_linear_1353_2)"/>
</mask>
<g mask="url(#mask0_1353_2)">
<path d="M213.788 180.244C213.788 209.101 190.396 232.494 161.539 232.494C132.683 232.494 109.29 209.101 109.29 180.244C109.29 165.03 115.793 151.335 126.17 141.786C135.476 133.224 147.897 127.995 161.539 127.995C190.396 127.995 213.788 151.388 213.788 180.244Z" fill="white" fill-opacity="0.12"/>
<path d="M213.788 180.244C213.788 209.101 190.396 232.494 161.539 232.494H312.334C283.477 232.494 260.085 209.101 260.085 180.244C260.085 176.558 260.466 172.962 261.192 169.491C258.732 169.847 256.216 170.031 253.657 170.031C228.296 170.031 207.155 151.962 202.405 127.995H168.323H161.539C190.396 127.995 213.788 151.388 213.788 180.244Z" fill="white" fill-opacity="0.12"/>
<path d="M202.405 127.995C201.751 124.692 201.407 121.277 201.407 117.782C201.407 113.191 202 108.739 203.111 104.497C198.745 112.33 185.675 127.995 168.323 127.995H202.405Z" fill="white" fill-opacity="0.12"/>
<path fill-rule="evenodd" clip-rule="evenodd" d="M312.334 232.494C341.19 232.494 364.583 209.101 364.583 180.244C364.583 151.388 341.19 127.995 312.334 127.995C309.775 127.995 307.259 128.179 304.798 128.535C300.344 149.823 282.934 166.351 261.192 169.491C260.466 172.962 260.085 176.558 260.085 180.244C260.085 209.101 283.477 232.494 312.334 232.494Z" fill="white" fill-opacity="0.12"/>
<path d="M304.798 128.535C300.344 149.823 282.934 166.351 261.192 169.491C265.646 148.203 283.057 131.675 304.798 128.535Z" fill="white" fill-opacity="0.12"/>
<path d="M305.906 117.782C305.906 88.9252 282.513 65.5324 253.657 65.5324C229.391 65.5324 208.989 82.0743 203.111 104.497C202 108.739 201.407 113.191 201.407 117.782C201.407 121.277 201.751 124.692 202.405 127.995C207.155 151.962 228.296 170.031 253.657 170.031C256.216 170.031 258.732 169.847 261.192 169.491C265.646 148.203 283.057 131.675 304.798 128.535C305.524 125.064 305.906 121.468 305.906 117.782Z" fill="white" fill-opacity="0.12"/>
</g>
<defs>
<linearGradient id="paint0_linear_1353_2" x1="160.653" y1="0.430969" x2="160.653" y2="206.603" gradientUnits="userSpaceOnUse">
<stop stop-color="#197BBD"/>
<stop offset="1" stop-color="#3391D0"/>
</linearGradient>
<linearGradient id="paint1_linear_1353_2" x1="160.653" y1="0.430969" x2="160.653" y2="206.603" gradientUnits="userSpaceOnUse">
<stop stop-color="#197BBD"/>
<stop offset="1" stop-color="#3391D0"/>
</linearGradient>
</defs>
</svg>
