<svg width="21" height="21" viewBox="0 0 21 21" fill="none" xmlns="http://www.w3.org/2000/svg">
<rect x="0.557617" y="0.135315" width="20.4008" height="20.4008" rx="6.00038" fill="#EFEFEF"/>
<path d="M13.2041 6.56641H5.70361V13.0668H13.2041V6.56641Z" stroke="black" stroke-width="1.00006" stroke-linecap="round" stroke-linejoin="round"/>
<path d="M13.2041 9.06689H15.2042L16.7043 10.567V13.0671H13.2041V9.06689Z" stroke="black" stroke-width="1.00006" stroke-linecap="round" stroke-linejoin="round"/>
<path d="M7.95369 15.5666C8.64409 15.5666 9.20377 15.0069 9.20377 14.3165C9.20377 13.6261 8.64409 13.0664 7.95369 13.0664C7.26329 13.0664 6.70361 13.6261 6.70361 14.3165C6.70361 15.0069 7.26329 15.5666 7.95369 15.5666Z" stroke="black" stroke-width="1.00006" stroke-linecap="round" stroke-linejoin="round"/>
<path d="M14.4542 15.5666C15.1446 15.5666 15.7043 15.0069 15.7043 14.3165C15.7043 13.6261 15.1446 13.0664 14.4542 13.0664C13.7638 13.0664 13.2041 13.6261 13.2041 14.3165C13.2041 15.0069 13.7638 15.5666 14.4542 15.5666Z" stroke="black" stroke-width="1.00006" stroke-linecap="round" stroke-linejoin="round"/>
</svg>
