<svg width="43" height="45" viewBox="0 0 43 45" fill="none" xmlns="http://www.w3.org/2000/svg">
<rect x="0.773376" y="0.90963" width="42.1416" height="43.4414" rx="3" fill="#DDF9E4"/>
<path d="M23.4638 14.4887H13.8935C12.7889 14.4887 11.8935 15.3842 11.8935 16.4887V24.2497C11.8935 25.3543 12.7889 26.2497 13.8935 26.2497H23.4638C24.5684 26.2497 25.4638 25.3543 25.4638 24.2497V16.4887C25.4638 15.3842 24.5684 14.4887 23.4638 14.4887Z" stroke="#22A447" stroke-width="2" stroke-linecap="round" stroke-linejoin="round"/>
<path d="M25.4628 21.0131C25.4628 19.9086 26.3583 19.0131 27.4628 19.0131H28.2532C28.7836 19.0131 29.2923 19.2239 29.6674 19.5989L31.2099 21.1414C31.5849 21.5165 31.7957 22.0252 31.7957 22.5556V24.2507C31.7957 25.3552 30.9002 26.2507 29.7957 26.2507H27.4628C26.3583 26.2507 25.4628 25.3552 25.4628 24.2507V21.0131Z" stroke="#22A447" stroke-width="2" stroke-linecap="round" stroke-linejoin="round"/>
<path d="M15.9648 30.7719C17.2139 30.7719 18.2265 29.7593 18.2265 28.5102C18.2265 27.2611 17.2139 26.2485 15.9648 26.2485C14.7157 26.2485 13.7031 27.2611 13.7031 28.5102C13.7031 29.7593 14.7157 30.7719 15.9648 30.7719Z" stroke="#22A447" stroke-width="2" stroke-linecap="round" stroke-linejoin="round"/>
<path d="M27.7246 30.7719C28.9737 30.7719 29.9863 29.7593 29.9863 28.5102C29.9863 27.2611 28.9737 26.2485 27.7246 26.2485C26.4754 26.2485 25.4628 27.2611 25.4628 28.5102C25.4628 29.7593 26.4754 30.7719 27.7246 30.7719Z" stroke="#22A447" stroke-width="2" stroke-linecap="round" stroke-linejoin="round"/>
</svg>
