<svg width="18" height="18" viewBox="0 0 18 18" fill="none" xmlns="http://www.w3.org/2000/svg">
<rect x="0.258301" y="0.809082" width="16.9996" height="16.9996" rx="5" fill="#EFEFEF"/>
<path d="M12.6511 13.6889V12.7156C12.6511 12.1994 12.446 11.7042 12.0809 11.3392C11.7159 10.9741 11.2208 10.769 10.7045 10.769H6.81133C6.29506 10.769 5.79994 10.9741 5.43489 11.3392C5.06983 11.7042 4.86475 12.1994 4.86475 12.7156V13.6889" stroke="black" stroke-width="0.973292" stroke-linecap="round" stroke-linejoin="round"/>
<path d="M8.75762 8.82237C9.83269 8.82237 10.7042 7.95085 10.7042 6.87578C10.7042 5.80071 9.83269 4.9292 8.75762 4.9292C7.68255 4.9292 6.81104 5.80071 6.81104 6.87578C6.81104 7.95085 7.68255 8.82237 8.75762 8.82237Z" stroke="black" stroke-width="0.973292" stroke-linecap="round" stroke-linejoin="round"/>
</svg>
