<svg width="43" height="44" viewBox="0 0 43 44" fill="none" xmlns="http://www.w3.org/2000/svg">
<rect x="0.773376" y="0.166441" width="42.1416" height="43.4414" rx="3" fill="#FFEADA"/>
<path d="M18.0068 29.8556C18.4259 29.8556 18.7657 29.5159 18.7657 29.0967C18.7657 28.6776 18.4259 28.3378 18.0068 28.3378C17.5876 28.3378 17.2479 28.6776 17.2479 29.0967C17.2479 29.5159 17.5876 29.8556 18.0068 29.8556Z" stroke="#F8964C" stroke-width="2" stroke-linecap="round" stroke-linejoin="round"/>
<path d="M26.3534 29.8556C26.7725 29.8556 27.1123 29.5159 27.1123 29.0967C27.1123 28.6776 26.7725 28.3378 26.3534 28.3378C25.9343 28.3378 25.5945 28.6776 25.5945 29.0967C25.5945 29.5159 25.9343 29.8556 26.3534 29.8556Z" stroke="#F8964C" stroke-width="2" stroke-linecap="round" stroke-linejoin="round"/>
<path d="M11.9335 13.9184H14.9692L17.003 24.0802C17.0724 24.4296 17.2625 24.7434 17.54 24.9668C17.8175 25.1902 18.1647 25.3088 18.5208 25.302H25.8974C26.2536 25.3088 26.6008 25.1902 26.8783 24.9668C27.1558 24.7434 27.3458 24.4296 27.4152 24.0802L28.6295 17.7129H15.7281" stroke="#F8964C" stroke-width="2" stroke-linecap="round" stroke-linejoin="round"/>
</svg>
