<svg width="21" height="21" viewBox="0 0 21 21" fill="none" xmlns="http://www.w3.org/2000/svg">
<rect x="0.557617" y="0.144073" width="20.4006" height="20.4006" rx="6.00032" fill="#EFEFEF"/>
<path d="M8.71469 16.0537C8.99084 16.0537 9.21471 15.8298 9.21471 15.5537C9.21471 15.2775 8.99084 15.0536 8.71469 15.0536C8.43853 15.0536 8.21466 15.2775 8.21466 15.5537C8.21466 15.8298 8.43853 16.0537 8.71469 16.0537Z" stroke="#404040" stroke-width="0.996054" stroke-linecap="round" stroke-linejoin="round"/>
<path d="M14.2146 16.0537C14.4908 16.0537 14.7146 15.8298 14.7146 15.5537C14.7146 15.2775 14.4908 15.0536 14.2146 15.0536C13.9384 15.0536 13.7146 15.2775 13.7146 15.5537C13.7146 15.8298 13.9384 16.0537 14.2146 16.0537Z" stroke="#404040" stroke-width="0.996054" stroke-linecap="round" stroke-linejoin="round"/>
<path d="M4.71387 5.55276H6.71398L8.05405 12.2481C8.09977 12.4783 8.22501 12.6851 8.40784 12.8323C8.59067 12.9795 8.81944 13.0577 9.0541 13.0532H13.9144C14.149 13.0577 14.3778 12.9795 14.5606 12.8323C14.7435 12.6851 14.8687 12.4783 14.9144 12.2481L15.7145 8.0529H7.214" stroke="#404040" stroke-width="0.996054" stroke-linecap="round" stroke-linejoin="round"/>
</svg>
