<svg width="18" height="18" viewBox="0 0 18 18" fill="none" xmlns="http://www.w3.org/2000/svg">
<rect x="0.258301" y="0.817871" width="16.9996" height="16.9996" rx="5" fill="#EFEFEF"/>
<path d="M12.6511 13.6977V12.7244C12.6511 12.2081 12.446 11.713 12.0809 11.348C11.7159 10.9829 11.2208 10.7778 10.7045 10.7778H6.81133C6.29506 10.7778 5.79994 10.9829 5.43489 11.348C5.06983 11.713 4.86475 12.2081 4.86475 12.7244V13.6977" stroke="black" stroke-width="0.973292" stroke-linecap="round" stroke-linejoin="round"/>
<path d="M8.75762 8.83116C9.83269 8.83116 10.7042 7.95964 10.7042 6.88457C10.7042 5.8095 9.83269 4.93799 8.75762 4.93799C7.68255 4.93799 6.81104 5.8095 6.81104 6.88457C6.81104 7.95964 7.68255 8.83116 8.75762 8.83116Z" stroke="black" stroke-width="0.973292" stroke-linecap="round" stroke-linejoin="round"/>
</svg>
