<svg width="43" height="45" viewBox="0 0 43 45" fill="none" xmlns="http://www.w3.org/2000/svg">
<rect x="0.773376" y="0.652588" width="42.1416" height="43.4414" rx="3" fill="#E4F0FF"/>
<path d="M22.0697 21.9228L16.5607 27.4328L14.6907 26.6558L14.5237 26.8248L16.9037 28.4118L18.4917 30.7918L18.6597 30.6238L17.8837 28.7538L23.3927 23.2458L27.7207 29.4978L27.9307 29.2898L25.0437 21.5938L29.4437 17.1958C29.6098 17.0185 29.7004 16.7835 29.6965 16.5406C29.6925 16.2977 29.5942 16.0658 29.4224 15.894C29.2506 15.7222 29.0188 15.6239 28.7758 15.62C28.5329 15.616 28.298 15.7067 28.1207 15.8728L23.7207 20.2718L16.0267 17.3858L15.8167 17.5948L22.0697 21.9228V21.9228ZM27.4597 32.4058L23.1297 26.1528L20.0897 29.1928L20.8667 31.0628L18.2007 33.7278L15.5557 29.7608L11.5877 27.1148L14.2537 24.4488L16.1227 25.2248L19.1627 22.1848L12.9097 17.8568L15.5557 15.2118L23.2507 18.0968L26.7977 14.5498C27.0571 14.2841 27.3666 14.0725 27.7084 13.9274C28.0501 13.7822 28.4173 13.7063 28.7886 13.7041C29.1599 13.7019 29.528 13.7734 29.8714 13.9145C30.2149 14.0555 30.527 14.2634 30.7895 14.5259C31.0521 14.7885 31.2599 15.1005 31.401 15.444C31.542 15.7875 31.6135 16.1555 31.6113 16.5268C31.6091 16.8981 31.5332 17.2653 31.388 17.6071C31.2429 17.9488 31.0313 18.2584 30.7657 18.5178L27.2187 22.0648L30.1047 29.7608L27.4587 32.4058H27.4597Z" fill="#70A6E8"/>
</svg>
